<svg xmlns="http://www.w3.org/2000/svg" width="24" height="23" viewBox="0 0 24 23"><g><g><path fill="#00cae6" d="M14.577 5.232h-.215L1.495 5.23c-.16 0-.324-.006-.483-.028-.373-.054-.641-.275-.837-.59a1.28 1.28 0 0 1 .203-1.552c.26-.247.572-.363.927-.363h13.267C15.257 1.002 16.481.09 18.285 0c1.803.09 3.028.999 3.716 2.698.144 0 .294-.004.445 0 .172.006.345.01.516.03.315.04.572.202.763.451.191.248.296.536.27.857-.03.384-.187.7-.493.94-.239.185-.506.259-.8.256-.233-.002-.465 0-.709 0-.338.952-.931 1.688-1.796 2.187a3.712 3.712 0 0 1-2.177.504c-1.4-.109-2.802-.952-3.444-2.691zm2.309-1.268c-.03.806.663 1.426 1.382 1.433A1.412 1.412 0 0 0 19.7 3.99a1.407 1.407 0 0 0-1.406-1.452 1.402 1.402 0 0 0-1.408 1.426zm-5.917 13.804c.651-1.605 1.782-2.544 3.483-2.688.87-.073 1.677.17 2.404.667.729.496 1.226 1.176 1.532 2.021h.177c1.38 0 2.759.001 4.138-.001.273 0 .526.064.75.22a1.27 1.27 0 0 1 .353 1.714 1.182 1.182 0 0 1-.895.577 2.489 2.489 0 0 1-.306.024c-1.325.002-2.65.001-3.976.001h-.233c-.692 1.708-1.924 2.617-3.736 2.697-1.793-.094-3-1.013-3.689-2.697H2.716c-.474 0-.949.001-1.423-.001-.195-.001-.383-.038-.564-.121a1.193 1.193 0 0 1-.635-.669c-.27-.687.065-1.461.796-1.692.171-.054.348-.051.525-.051h8.341l1.071-.001h.142zm5.112 1.268c.032-.807-.678-1.448-1.415-1.433a1.406 1.406 0 0 0-1.395 1.442 1.4 1.4 0 0 0 1.405 1.418c.814.007 1.44-.696 1.405-1.427zm-7-6.27c-.699 1.705-1.924 2.624-3.74 2.698-1.378-.027-2.987-.792-3.686-2.698h-.347a1.252 1.252 0 0 1-.737-.206c-.344-.234-.542-.56-.563-.982-.026-.52.191-.91.628-1.176a1.21 1.21 0 0 1 .601-.167c.14-.005.28 0 .424 0 .335-.927.9-1.647 1.732-2.147a3.705 3.705 0 0 1 2.054-.546c1.475.044 2.966.902 3.624 2.686.046.002.1.005.152.005l1.135.001h12.316c.242 0 .47.048.684.165.513.28.786.96.562 1.54a1.22 1.22 0 0 1-.81.766c-.132.04-.276.058-.414.059-1.184.004-2.369 0-3.554 0l-9.848.002h-.212zm-2.316-1.179a1.417 1.417 0 0 0-1.303-1.512 1.407 1.407 0 0 0-1.509 1.397 1.405 1.405 0 0 0 1.323 1.454c.824.063 1.487-.644 1.49-1.339z"/></g></g></svg>