<svg xmlns="http://www.w3.org/2000/svg" width="29" height="29" viewBox="0 0 29 29"><g><g><path fill="#fff" d="M14.514.007c.25 0 .513-.01.776.002.236.01.471.043.707.066.143.014.288.024.43.046.37.055.742.105 1.107.18.321.065.637.16.954.245.482.13.95.304 1.415.487.713.28 1.39.627 2.047 1.018.436.26.851.549 1.259.851.67.496 1.28 1.055 1.851 1.66.334.353.643.728.944 1.113.46.588.862 1.214 1.222 1.864.248.447.45.92.66 1.388.123.276.234.559.327.846.13.406.244.818.355 1.23.075.28.15.56.195.844.067.428.103.861.164 1.29.064.453.08.906.072 1.36-.006.383-.012.766-.043 1.146-.03.38-.092.756-.14 1.134-.117.918-.381 1.798-.686 2.667a14.413 14.413 0 0 1-1.492 2.976c-.344.53-.719 1.04-1.139 1.513-.262.295-.526.589-.805.867a14.288 14.288 0 0 1-5.593 3.451 13.5 13.5 0 0 1-2.078.534c-.395.064-.796.088-1.193.142-.596.08-1.195.079-1.794.066-.262-.005-.524-.04-.786-.063-.177-.014-.354-.025-.53-.045-.502-.059-1.005-.127-1.493-.256a31.513 31.513 0 0 1-1.602-.485c-.595-.193-1.16-.46-1.718-.74a14.309 14.309 0 0 1-1.573-.943c-.87-.59-1.663-1.27-2.38-2.037-.292-.312-.58-.63-.842-.966a14.756 14.756 0 0 1-1.417-2.182c-.206-.39-.408-.784-.57-1.193-.229-.58-.46-1.16-.595-1.774-.081-.372-.188-.738-.27-1.11-.086-.398-.114-.806-.165-1.21-.092-.723-.072-1.447-.065-2.17.002-.25.042-.498.064-.747.014-.15.034-.301.042-.452.021-.383.105-.755.187-1.128A14.455 14.455 0 0 1 1.99 7.19c.249-.427.517-.841.808-1.24a13.434 13.434 0 0 1 1.647-1.887c.326-.305.65-.616 1.002-.891a15.452 15.452 0 0 1 1.671-1.154c.562-.332 1.14-.634 1.74-.884.497-.207.994-.417 1.522-.54.306-.071.607-.167.913-.243.427-.107.858-.185 1.297-.236.635-.073 1.27-.134 1.924-.107zM26.376 14.49h-.008c0-.33.013-.66-.004-.989a7.417 7.417 0 0 0-.103-.82 16.261 16.261 0 0 0-.19-.965c-.054-.237-.14-.466-.197-.702-.12-.489-.322-.947-.522-1.403a11.21 11.21 0 0 0-.83-1.527 11.671 11.671 0 0 0-1.262-1.64c-.071-.077-.156-.143-.223-.224-.237-.284-.518-.523-.798-.761-.246-.208-.504-.402-.76-.598a9.139 9.139 0 0 0-1.297-.825c-.46-.242-.927-.467-1.413-.655a11.586 11.586 0 0 0-1.908-.554c-.366-.074-.738-.12-1.108-.168a7.339 7.339 0 0 0-.766-.068c-.513-.013-1.027-.023-1.54.04-.325.04-.654.064-.975.129-.468.095-.936.202-1.394.337a11.1 11.1 0 0 0-1.259.453 12.054 12.054 0 0 0-4.083 2.91A12.118 12.118 0 0 0 4.3 8.384a12.13 12.13 0 0 0-.922 1.895 7.46 7.46 0 0 0-.18.52c-.091.302-.185.604-.258.91-.072.3-.126.604-.177.908-.039.234-.065.469-.09.704-.026.255-.056.51-.063.767-.012.467-.016.936.04 1.402.04.34.067.682.13 1.017.079.412.19.818.286 1.226.12.508.315.99.521 1.467.13.302.275.599.43.888.172.319.347.637.55.936.391.578.813 1.133 1.3 1.636.348.36.705.71 1.093 1.024a12.016 12.016 0 0 0 4.47 2.304c.484.126.97.237 1.465.3.345.042.693.077 1.04.085.56.014 1.12.033 1.679-.03.274-.032.55-.05.821-.099.342-.061.68-.142 1.018-.224.261-.063.525-.124.777-.216.573-.21 1.143-.428 1.686-.715.424-.226.843-.46 1.24-.732a12.903 12.903 0 0 0 1.535-1.236c.395-.37.756-.77 1.094-1.19.451-.557.857-1.15 1.183-1.791.161-.316.322-.633.464-.958.188-.427.36-.861.476-1.315.06-.233.14-.462.191-.697.07-.32.132-.643.182-.968.043-.285.077-.573.093-.862.016-.282.003-.567.003-.85zm-15.244 7.234c-.559 0-.89-.315-1.092-.795a1.996 1.996 0 0 1-.166-.747c-.007-.382-.03-.764-.03-1.146-.002-3.28-.003-6.56.001-9.839 0-.388.036-.775.193-1.14.092-.215.215-.403.394-.558.266-.23.577-.272.908-.237.28.03.53.146.764.297.415.267.832.53 1.246.798.348.225.692.458 1.04.684.446.29.897.575 1.344.865.276.178.547.365.823.542.36.232.723.457 1.082.689.37.24.736.486 1.104.726.446.291.896.577 1.34.87.34.223.702.422.957.753.181.235.323.487.369.793.078.523-.12.942-.452 1.312-.125.14-.28.26-.437.367-.43.292-.865.576-1.301.859-.282.183-.57.357-.852.537-.172.11-.341.225-.512.337l-1.24.81c-.297.194-.593.39-.892.582-.366.235-.735.462-1.1.699-.358.232-.711.474-1.07.707-.524.34-1.05.678-1.577 1.014-.196.125-.626.25-.844.22z"/></g></g></svg>