<svg xmlns="http://www.w3.org/2000/svg" width="24" height="24" viewBox="0 0 24 24"><g><g><path fill="#00cae6" d="M22.896 22.918c-.72.716-1.559 1.074-2.518 1.074-.839 0-1.798-.358-2.517-1.074l-4.556-4.532c-1.079.477-2.397.716-3.716.716-5.275 0-9.591-4.294-9.591-9.542S4.314.018 9.468.018c5.276 0 9.592 4.294 9.592 9.542 0 1.312-.24 2.505-.72 3.697l4.556 4.533c1.439 1.312 1.439 3.697 0 5.128zM9.589 16.716c3.956 0 7.193-3.22 7.193-7.156 0-3.936-3.237-7.156-7.193-7.156-3.956 0-7.193 3.22-7.193 7.156 0 3.936 3.237 7.156 7.193 7.156zm11.629 2.743l-4.076-4.055a11.094 11.094 0 0 1-1.679 1.67l4.076 4.055c.48.477 1.2.477 1.679 0 .48-.477.48-1.192 0-1.67z"/></g></g></svg>